<svg width="18" height="18" viewBox="0 0 18 18" fill="none" xmlns="http://www.w3.org/2000/svg">
<path d="M9.03001 2.541L10.807 7.291L15.916 7.531L11.929 10.731L13.264 15.65L8.99701 12.866L4.71801 15.674L6.06801 10.737L2.08201 7.537L7.18201 7.293L9.03001 2.541ZM9.04001 0.411001C8.96403 0.409976 8.8896 0.432496 8.82693 0.475468C8.76426 0.51844 8.71643 0.579758 8.69001 0.651001L6.48501 6.326L0.385009 6.619C0.309043 6.6228 0.236027 6.6496 0.17565 6.69586C0.115274 6.74212 0.0703907 6.80564 0.0469576 6.878C0.0235245 6.95036 0.0226492 7.02814 0.0444478 7.10101C0.0662464 7.17388 0.109688 7.2384 0.169009 7.286L4.93001 11.106L3.31601 17.006C3.30062 17.0618 3.29831 17.1204 3.30927 17.1772C3.32023 17.234 3.34415 17.2875 3.37918 17.3336C3.41421 17.3797 3.4594 17.417 3.51123 17.4428C3.56307 17.4685 3.62014 17.4819 3.67801 17.482C3.75106 17.4817 3.82239 17.4598 3.88301 17.419L9.00001 14.061L14.093 17.385C14.1535 17.4252 14.2244 17.4467 14.297 17.447C14.3549 17.447 14.4119 17.4337 14.4638 17.4081C14.5157 17.3825 14.5609 17.3453 14.596 17.2993C14.6311 17.2534 14.6552 17.1999 14.6663 17.1431C14.6774 17.0864 14.6752 17.0278 14.66 16.972L13.065 11.106L17.83 7.28C17.8894 7.23234 17.9328 7.16773 17.9546 7.09478C17.9764 7.02182 17.9754 6.94396 17.9518 6.87156C17.9283 6.79917 17.8833 6.73565 17.8227 6.68946C17.7622 6.64328 17.6891 6.61661 17.613 6.613L11.513 6.326L9.39301 0.656001C9.3674 0.583556 9.31981 0.520913 9.25689 0.476813C9.19396 0.432713 9.11884 0.409356 9.04201 0.410001L9.04001 0.411001Z" fill="#464646"/>
</svg>