<svg width="18" height="17" viewBox="0 0 18 17" fill="none" xmlns="http://www.w3.org/2000/svg">
<path d="M9.23901 0.295998L11.4 6.014L17.506 6.304C17.5578 6.30612 17.6077 6.32396 17.6491 6.35516C17.6905 6.38636 17.7214 6.42943 17.7377 6.47863C17.7539 6.52783 17.7549 6.58082 17.7403 6.63055C17.7257 6.68029 17.6963 6.72439 17.656 6.757L12.886 10.58L14.498 16.477C14.5116 16.5269 14.5096 16.5798 14.4924 16.6286C14.4752 16.6774 14.4435 16.7198 14.4016 16.7502C14.3598 16.7806 14.3096 16.7975 14.2579 16.7987C14.2061 16.7999 14.1553 16.7854 14.112 16.757L9 13.402L3.89 16.758C3.84667 16.7865 3.79565 16.8012 3.74378 16.8C3.6919 16.7987 3.64163 16.7817 3.59968 16.7512C3.55773 16.7206 3.5261 16.678 3.509 16.629C3.4919 16.58 3.49016 16.527 3.504 16.477L5.116 10.581L0.346004 6.758C0.305345 6.72549 0.275609 6.68131 0.260792 6.63141C0.245974 6.58151 0.246786 6.52826 0.263117 6.47883C0.279449 6.4294 0.310518 6.38616 0.352149 6.3549C0.393781 6.32365 0.443981 6.30588 0.496004 6.304L6.6 6.014L8.762 0.295998C8.78051 0.247892 8.81316 0.206523 8.85564 0.177344C8.89813 0.148165 8.94846 0.132545 9 0.132545C9.05155 0.132545 9.10188 0.148165 9.14437 0.177344C9.18685 0.206523 9.2195 0.247892 9.238 0.295998H9.23901Z" fill="#0265DC"/>
</svg>