<svg width="20" height="20" viewBox="0 0 20 20" fill="none" xmlns="http://www.w3.org/2000/svg">
<g id="uil:times">
<path id="Vector" d="M11.1739 9.99858L14.7538 6.42703C14.9106 6.27026 14.9986 6.05764 14.9986 5.83594C14.9986 5.61423 14.9106 5.40161 14.7538 5.24484C14.597 5.08807 14.3844 5 14.1627 5C13.941 5 13.7284 5.08807 13.5716 5.24484L10 8.82471L6.4285 5.24484C6.27173 5.08807 6.05911 5 5.8374 5C5.6157 5 5.40307 5.08807 5.24631 5.24484C5.08954 5.40161 5.00147 5.61423 5.00147 5.83594C5.00147 6.05764 5.08954 6.27026 5.24631 6.42703L8.82618 9.99858L5.24631 13.5701C5.16827 13.6475 5.10634 13.7396 5.06407 13.8411C5.02181 13.9425 5.00005 14.0513 5.00005 14.1612C5.00005 14.2711 5.02181 14.3799 5.06407 14.4814C5.10634 14.5828 5.16827 14.6749 5.24631 14.7523C5.3237 14.8304 5.41578 14.8923 5.51723 14.9346C5.61868 14.9768 5.7275 14.9986 5.8374 14.9986C5.94731 14.9986 6.05612 14.9768 6.15757 14.9346C6.25902 14.8923 6.3511 14.8304 6.4285 14.7523L10 11.1724L13.5716 14.7523C13.649 14.8304 13.7411 14.8923 13.8425 14.9346C13.944 14.9768 14.0528 14.9986 14.1627 14.9986C14.2726 14.9986 14.3814 14.9768 14.4829 14.9346C14.5843 14.8923 14.6764 14.8304 14.7538 14.7523C14.8318 14.6749 14.8938 14.5828 14.936 14.4814C14.9783 14.3799 15 14.2711 15 14.1612C15 14.0513 14.9783 13.9425 14.936 13.8411C14.8938 13.7396 14.8318 13.6475 14.7538 13.5701L11.1739 9.99858Z" fill="#0065FF"/>
</g>
</svg>
