<svg width="20" height="20" viewBox="0 0 20 20" fill="none" xmlns="http://www.w3.org/2000/svg">
<path d="M17.7779 16.6511L14.8112 13.7067C15.9628 12.2699 16.5205 10.4464 16.3696 8.61085C16.2187 6.77535 15.3707 5.06745 14 3.83834C12.6293 2.60923 10.84 1.95232 9.00005 2.0027C7.16014 2.05307 5.40943 2.8069 4.10793 4.10918C2.80642 5.41146 2.05304 7.1632 2.0027 9.00421C1.95235 10.8452 2.60886 12.6356 3.83725 14.0071C5.06563 15.3787 6.77251 16.2272 8.60692 16.3781C10.4413 16.5291 12.2638 15.9711 13.6997 14.8188L16.6424 17.7633C16.7168 17.8383 16.8052 17.8978 16.9027 17.9385C17.0001 17.9791 17.1046 18 17.2102 18C17.3158 18 17.4203 17.9791 17.5177 17.9385C17.6152 17.8978 17.7036 17.8383 17.7779 17.7633C17.9221 17.6141 18.0026 17.4147 18.0026 17.2072C18.0026 16.9997 17.9221 16.8003 17.7779 16.6511ZM9.21362 14.8188C8.10652 14.8188 7.02429 14.4903 6.10377 13.8749C5.18325 13.2595 4.46579 12.3847 4.04212 11.3613C3.61845 10.3379 3.5076 9.2117 3.72358 8.12523C3.93957 7.03875 4.47269 6.04076 5.25552 5.25746C6.03836 4.47416 7.03576 3.94072 8.12159 3.72461C9.20741 3.50849 10.3329 3.61941 11.3557 4.04333C12.3786 4.46725 13.2528 5.18514 13.8679 6.1062C14.4829 7.02727 14.8112 8.11015 14.8112 9.21791C14.8112 10.7034 14.2215 12.128 13.1717 13.1784C12.122 14.2287 10.6982 14.8188 9.21362 14.8188Z" fill="#898989"/>
</svg>
